# xmcd
#
# Track frame offsets:
#	150
#	14609
#	25396
#	38363
#	52210
#	64595
#	84076
#	96931
#	109005
#	121108
#	133592
#	143847
#	161388
#	175909
#
# Disc length: 2581 seconds
#
# Revision: 1
# Processed by: cddbd v1.5.1PL0 Copyright (c) Steve Scherf et al.
# Submitted via: audiograbber 1.83.01
#
DISCID=af0a130e
DTITLE=Ollie Austin - My Door Is Always Open
DYEAR=2000
DGENRE=Country
TTITLE0=Four Strong Winds
TTITLE1=Walking The Floor Over You
TTITLE2=Bar Stool Mountain
TTITLE3=Don't Let Me Cross Over
TTITLE4=The Door Is Always Open
TTITLE5=The Streets Of London
TTITLE6=Make The World Go Away
TTITLE7=Eighteen Yellow Roses
TTITLE8=Have You Ever Been Lonely
TTITLE9=Wrong Road Again
TTITLE10=Half As Much As I Love You
TTITLE11=Every Which Way But Loose
TTITLE12=Jeanie's Afraid Of The Dark
TTITLE13=Blue Eyes Crying In The Rain
EXTD=
EXTT0=
EXTT1=
EXTT2=
EXTT3=
EXTT4=
EXTT5=
EXTT6=
EXTT7=
EXTT8=
EXTT9=
EXTT10=
EXTT11=
EXTT12=
EXTT13=
PLAYORDER=
